<?xml version="1.0" encoding="utf-8"?>
<!-- Generator: Adobe Illustrator 19.0.0, SVG Export Plug-In . SVG Version: 6.00 Build 0)  -->
<svg version="1.1" id="Layer_1" xmlns="http://www.w3.org/2000/svg" xmlns:xlink="http://www.w3.org/1999/xlink" x="0px" y="0px"
	 viewBox="0 0 512 512" style="enable-background:new 0 0 512 512;" xml:space="preserve">
<g id="XMLID_1_">
	<path id="XMLID_3_" d="M508.1,122.5L375.7,257.2c-0.8,0.8-0.8,2.4,0,3.2l92.9,98.5c6.3,6.3,6.3,16.5,0,22.8
		c-3.2,3.2-7.1,4.7-11,4.7c-3.9,0-7.9-1.6-11-4.7L352.9,284c-0.8-0.8-2.4-0.8-3.9,0l-22.1,22.8c-18.9,18.9-44.1,29.9-70.9,29.9
		c-27.6,0-52.8-11-72.5-30.7L161.5,284c-0.8-0.8-2.4-0.8-3.9,0L67,382.4c-3.2,3.2-7.1,4.7-11,4.7s-7.9-1.6-11-4.7
		c-6.3-6.3-6.3-16.5,0-22.8l92.9-98.5c0.8-0.8,0.8-2.4,0-3.2L3.9,122.5c-1.6-1.6-3.9-0.8-3.9,1.6v270.2c0,22.1,18.1,39.4,39.4,39.4
		h433.2c22.1,0,39.4-18.1,39.4-39.4V124.1C512,122.5,509.6,120.9,508.1,122.5z"/>
	<path id="XMLID_4_" d="M256,304.4c18.1,0,35.4-7.1,48-20.5L497,87c-7.1-5.5-15-8.7-24.4-8.7H39.4c-9.5,0-18.1,3.2-24.4,8.7L208,284
		C220.6,297.4,237.9,304.4,256,304.4z"/>
</g>
</svg>
