<?xml version="1.0" standalone="no"?>
<!DOCTYPE svg PUBLIC "-//W3C//DTD SVG 20010904//EN"
 "http://www.w3.org/TR/2001/REC-SVG-20010904/DTD/svg10.dtd">
<svg version="1.0" xmlns="http://www.w3.org/2000/svg"
 viewBox="0 0 2600.000000 2600.000000"
 preserveAspectRatio="xMidYMid meet">
<metadata>
Created by potrace 1.15, written by Peter Selinger 2001-2017
</metadata>
<g transform="translate(0.000000,2600.000000) scale(0.100000,-0.100000)"
fill="#000000" stroke="none">
<path d="M12840 21640 c-1175 -48 -2351 -522 -3330 -1342 -1044 -875 -1829
-2095 -2204 -3423 -110 -390 -182 -776 -226 -1215 -18 -173 -24 -658 -11 -825
85 -1078 608 -2575 1516 -4334 1066 -2066 2560 -4273 3625 -5354 300 -305 483
-456 659 -544 81 -40 103 -47 170 -51 64 -3 87 0 145 22 162 61 347 200 615
461 959 933 2356 2927 3428 4890 910 1666 1505 3139 1733 4285 79 396 106 686
97 1055 -31 1330 -486 2653 -1306 3800 -638 893 -1523 1640 -2453 2072 -630
292 -1336 473 -1948 498 -283 11 -330 12 -510 5z m570 -2800 c1185 -118 2237
-851 2762 -1925 260 -531 372 -1078 346 -1688 -68 -1619 -1273 -2979 -2882
-3252 -222 -38 -391 -48 -671 -42 -303 7 -475 29 -750 97 -760 187 -1452 648
-1929 1283 -380 507 -609 1096 -677 1742 -27 256 -10 682 37 945 267 1480
1453 2621 2937 2825 253 35 571 41 827 15z"/>
</g>
</svg>
